<svg xmlns="http://www.w3.org/2000/svg" xmlns:xlink="http://www.w3.org/1999/xlink" id="body_19" preserveAspectRatio="xMinYMin meet" viewBox="0 0 680 868"><defs><clipPath id="1"><path clip-rule="evenodd" d="M0 651L0 -0.9699707L0 -0.9699707L510.24 -0.9699707L510.24 -0.9699707L510.24 651L510.24 651L0 651z" /></clipPath></defs><g transform="matrix(1.333333 0 0 1.333333 0 0)"><g clip-path="url(#1)"><path transform="matrix(1 0 0 -1 0 651)" d="M90.79 580.71L355.4 580.71" stroke="#000000" stroke-width="0.797" fill="none" /><path transform="matrix(1 0 0 -1 0 651)" d="M90.79 563.59L355.4 563.59" stroke="#000000" stroke-width="0.498" fill="none" /><path transform="matrix(1 0 0 -1 0 651)" d="M90.79 486.71L355.4 486.71" stroke="#000000" stroke-width="0.797" fill="none" /><path transform="matrix(1 0 0 -1 0 651)" d="M90.79 365.06L396.21 365.06" stroke="#000000" stroke-width="0.797" fill="none" /><path transform="matrix(1 0 0 -1 0 651)" d="M90.79 347.95L396.21 347.95" stroke="#000000" stroke-width="0.498" fill="none" /><path transform="matrix(1 0 0 -1 0 651)" d="M90.79 223.24L396.21 223.24" stroke="#000000" stroke-width="0.797" fill="none" /></g></g></svg>